<?xml version="1.0" encoding="utf-8"?>
<!-- Generator: Adobe Illustrator 27.2.0, SVG Export Plug-In . SVG Version: 6.00 Build 0)  -->
<svg version="1.1" id="Capa_1" xmlns="http://www.w3.org/2000/svg" xmlns:xlink="http://www.w3.org/1999/xlink" x="0px" y="0px"
	 viewBox="0 0 1088.9 195" style="enable-background:new 0 0 1088.9 195;" xml:space="preserve">
<style type="text/css">
	.st0{fill:#FFFFFF;}
</style>
<path class="st0" d="M110.8,92.5c0-2.7,0-11.3,0-12.6c-0.3-4.1-1.4-4.2-4.6-4.2h-2.4c-0.4,0-0.4-0.2-0.4-0.6v-1.6
	c0-0.4,0-0.5,0.6-0.5s4.3,0,9.5,0c2.2,0,6.5,0,9,0c4.2-0.2,8.5,0.5,12.4,2.1c3.6,1.8,5.7,5.6,5.4,9.7c0,7-3.1,8.8-8.6,11.7l0,0
	c6.7,1.3,11.5,7.2,11.5,14c-0.1,4.2-2,8.1-5.3,10.6c-4.2,2.1-8.9,3-13.5,2.6c-4.9,0-7.7,0-10.6,0s-7.7,0-9,0s-1,0-1-0.4V121
	c0-0.4,0-0.5,0.7-0.5h3.4c2.2,0,2.6-0.8,2.9-3.1c0.3-2.3,0.4-11,0.4-16.8v-8.1H110.8z M117,95.5c1.2,0.1,2.5,0.1,3.7,0
	c3.1,0.2,6.2-0.4,8.9-1.8c2.6-2,4.1-5.1,4-8.4c0.1-2.9-1.2-5.7-3.5-7.4c-2.9-1.9-6.3-2.9-9.7-2.8c-0.8-0.1-1.6-0.1-2.4,0
	c-0.6,0.1-1,0.7-1,1.3c0,1.4,0,7.6,0,13.4L117,95.5z M117,102.3v9.8c0,6.5,1.5,9.5,7.4,9.5c5.6,0.7,10.7-3.2,11.4-8.8
	c0.1-0.8,0.1-1.6,0-2.4c0.4-4.9-2.4-9.5-7-11.3c-3.1-1-6.3-1.4-9.5-1.2H117V102.3z"/>
<path class="st0" d="M214.4,91.5c0-4.5,0-12.1,0-13.3s-0.5-2.6-2.7-2.6h-3.3c-0.4,0-0.5-0.4-0.5-0.7v-1.5c0-0.4,0-0.5,0.5-0.5
	s3.3,0,9.2,0c6.9,0,9.9,0,10.5,0c0.7,0,0.6,0,0.6,0.6V75c0,0.4,0,0.6-0.7,0.6h-4.2c-2.2,0-2.5,0.7-2.5,2.8c0,0.9,0,11.6,0,16.6v6.1
	c0,1.2,0,16.5,0,19.4c1.6,0,15.6,0.3,17.8,0c4.1-0.6,8.4-9.1,9.4-11.9c0-0.3,0.3-0.4,0.6-0.3l1.1,0.5c0,0,0,0,0,0.6
	s-3.1,12.2-3.5,14.1h-12.8c-6.3,0-13.2,0-17.1,0h-6.3h-2.8c-0.5,0-0.6,0-0.6-0.5v-2c0-0.4,0-0.5,0.5-0.5h3.4c2.6,0,3.1-1,3.1-1.9
	s0-19,0-23.4L214.4,91.5z"/>
<path class="st0" d="M323,103.6c-0.7,1.7-4.6,12.5-5.1,14c0,0.5,0,1.2,0,1.6s0.9,1.5,2.4,1.5h3.3c0.5,0,0.7,0,0.7,0.5v1.6
	c0,0.5,0,0.6-0.6,0.6s-3.9,0-8.1,0c-5.1,0-6.7,0-7.7,0s-0.5,0-0.5-0.6V121c0-0.3,0.2-0.5,0.5-0.5c0,0,0,0,0.1,0h2.5
	c2.1,0,3.1-1,4.1-3.3c0.5-1.1,5.7-14.2,7.7-20c0.5-1.4,6.2-16.7,6.9-18.5c0.4-0.8,0.4-1.7,0-2.5c-0.2-0.3-0.4-0.6-0.5-0.9
	c0,0,0-0.5,0.6-0.6c2.2-0.7,4.2-1.9,5.9-3.6c0.4-0.3,0.6-0.6,0.9-0.6c0.4,0,0.6,0.4,0.8,1.2c1.3,4.4,6.8,20.4,8.2,24.8
	c1.6,5.6,6.2,18.8,7.3,20.8c0.8,1.9,2.7,3.2,4.8,3.2h2.4c0.4,0,0.6,0,0.6,0.5v1.8c0,0.4,0,0.5-0.7,0.5s-2.8,0-8.5,0s-8.4,0-10.2,0
	c-0.4,0-0.6,0-0.6-0.6V121c0-0.4,0-0.5,0.7-0.5h1.7c2,0,2.7-0.7,2.1-2.7c-0.5-1.9-3.5-11.6-4.5-14.5L323,103.6z M339.6,101
	c-0.9-2.1-6.4-19.9-7-20.9s-0.4-1-0.6-1s-0.6,0.5-0.8,1.1s-7.1,19.1-7.6,20.8H339.6z"/>
<path class="st0" d="M426,120.7c-0.9-0.7-1.3-0.9-1.6-0.9c-0.4,0-0.7,0.5-1.1,1.2s-0.8,0.8-1.3,0.8s-0.8-0.4-0.6-1.1
	c0.3-1.7,1-10.8,1.2-12.8c0-0.4,0-0.4,0.5-0.4h1.1c0,0,0.4,0,0.4,0.6c-0.1,2.9,0.8,5.8,2.6,8.2c2.3,3.2,6,5.2,9.9,5.1
	c5,0.3,9.3-3.4,9.6-8.4c0-0.2,0-0.4,0-0.6c0-7.3-5.1-10.2-10.9-12c-3.8-1.1-7.3-3.1-10.2-5.7c-2.5-2.8-3.8-6.5-3.6-10.2
	c0.2-3.5,1.8-6.7,4.4-9c2.7-2.4,6.3-3.6,9.9-3.4c2.9,0,5.7,0.6,8.4,1.8c0.7,0.4,1,0.3,1.4,0L447,73c0.2-0.3,0.6-0.4,0.9-0.4
	s0.6,0.6,0.6,1.2c0,2.5,0.9,9.7,1,11.3c0,0.4,0,0.5-0.4,0.6h-0.9c0,0-0.3,0-0.4,0c-0.7-3-2.3-5.7-4.4-7.9c-2-2.1-4.9-3.3-7.9-3.1
	c-4.4-0.3-8.3,3.1-8.6,7.5c0,0.3,0,0.5,0,0.8c-0.1,2.3,0.7,4.4,2.2,6.1c2.4,2,5.1,3.4,8.1,4.2c4.3,0.8,8.3,2.9,11.4,5.9
	c2.2,2.7,3.3,6.1,3.1,9.6c0.6,7.9-5.4,14.7-13.2,15.3c-0.4,0-0.8,0-1.2,0C433.2,124.3,429.2,123.1,426,120.7z"/>
<path class="st0" d="M522,91.7c0-3.2,0-13.1,0-14s-1-2-2.9-2H515c-0.3,0-0.5,0-0.5-0.4v-1.9c0-0.3,0-0.4,0.5-0.4h2.9
	c1.6,0,4,0,7.4,0c1.2,0,26.1,0,27.2-0.3c0,1.2,2.4,10.7,2.8,12.6c0,0,0,0.4,0,0.5l-1.3,0.5c0,0-0.3,0-0.6-0.5s-2.5-3.7-4.5-6.5
	c-1.3-1.7-3.1-2.9-5.1-3.4c-1.8-0.4-13.1-0.6-15.3-0.6c0,0.9,0,15.3,0,19.5v3.6c1,0,8.4,0,9.3-0.4c0.9-0.4,2.5-0.9,3.1-3.1
	c0-0.7,0.5-2.2,0.7-3.5c0-0.3,0-0.5,0.5-0.5h1.4c0.3,0,0.5,0.2,0.5,0.5c0,0,0,0,0,0.1c0,1.2,0,7.1,0,8.1c0,2.6,0,6,0.4,7.4
	c0,0.4,0,0.5-0.5,0.6h-1.3c-0.4,0-0.5,0-0.5-0.5c-0.1-0.5-0.6-2.7-0.8-3.4c-0.3-1.5-1.4-2.6-2.9-2.8c-3.3-0.2-6.6-0.2-9.9-0.1v2.6
	c0,2.1,0,14.1,0,15.3c0,1.9,0.4,2.2,2.8,2.2h3.5c0.4,0,0.6,0.2,0.6,0.5v1.7c0,0.5,0,0.6-0.6,0.6s-3.5,0-9.6,0s-8.2,0-9.3,0
	s-0.5,0-0.5-0.5v-2c0,0,0-0.4,0.5-0.4h3.2c1.8,0,2.4,0,2.5-1.5s0.3-10.2,0.3-22.5L522,91.7z"/>
<path class="st0" d="M628,96.1c0.6,0,8.1-0.3,9-0.4c2-0.4,2.6-0.9,3.3-3.1c0.3-1.1,0.5-2.3,0.6-3.5c0-0.3,0.2-0.5,0.4-0.5h0.1h1.7
	c0.3,0,0.5,0.2,0.5,0.4v0.1c0,1.2,0,7.1,0,8.1c0,2.5,0.3,5.9,0.5,7.4c0,0.4,0,0.5-0.5,0.6H642c-0.4,0-0.5,0-0.6-0.6
	s-0.6-2.6-0.8-3.4c-0.3-1.5-1.5-2.6-3.1-2.8c-3.3-0.4-8.2-0.4-9.4-0.4v4.4c0,3.8,0,10.7,0,12.1c0,3.7,1.8,5.1,4,5.6
	c1.7,0.3,3.4,0.4,5.1,0.5c1.2,0,4.8,0,6.2,0c2.2-0.3,4.3-1.1,6.2-2.5c2.1-2.3,4.1-4.8,5.8-7.4c0-0.4,0.4-0.6,0.8-0.4l1.2,0.6
	c0.4,0,0.4,0.5,0,1l-3.7,10.2c-0.2,0.7-0.9,1.1-1.6,1H646h-22h-6h-3.1c-0.4,0-0.6,0-0.6-0.5V121c0,0,0-0.4,0.7-0.4h2.9
	c3.3,0,3.5-0.5,3.5-3.1V93.9c0-5.9,0-14.8,0-15.3c-0.3-2.2-1-2.8-3.6-2.8h-2.6c-0.4,0-0.6,0-0.6-0.5v-2c0,0,0-0.4,0.5-0.4
	c1.5,0,4,0,8.7,0H648c1.1,0,2.5,0,2.8,0s0.5,0,0.6,0.4s3.4,10.7,3.6,11.4s0,0.5,0,0.7l-1.1,0.6c0,0-0.5,0-0.6,0
	c-2.2-3-4.7-5.8-7.4-8.3c-1.5-1.1-3.3-1.8-5.1-1.9h-12.6L628,96.1z"/>
<path class="st0" d="M749.4,111.9c1-1.1,8.1-18,8.6-18.9c0.6-0.9,8.2-17.6,8.5-19.1c0.3-1.4,0.9-0.9,1.6-0.9c9.5,0,11.9,0,12.6,0
	c0.8,0,0.5,0,0.5,0.5V75c0,0.4,0,0.6-0.6,0.6h-3.1c-2.1,0-2.4,1.3-2.4,2.9s0,12.2,0,16.9v5.1c0,3.5,0,15,0,16.4
	c0,2.7,0.6,3.8,2.4,3.8h4.2c0.4,0,0.5,0,0.5,0.5v1.6c0,0.4,0,0.6-0.6,0.6s-2.1,0-9.9,0c-6.5,0-9.3,0-10.2,0s-0.6,0-0.6-0.6V121
	c0-0.4,0-0.5,0.6-0.5h4.8c1.2,0,1.8-0.4,2-2.6c0-0.8,0-13.2,0-18.4v-4.1c0-4.7,0-17.3,0-17.9l0,0c-0.7,0.7-10.9,23-11.3,23.7
	s-8.3,18.9-8.6,19.6s-0.8,1.7-1.4,1.7c-0.6,0-0.8-0.6-1.1-1.3l-9.7-23.8c-1.3-3.2-7.8-19.1-8.8-20c0,1-0.4,18.9-0.4,19.8
	s0,15.8,0,18.3c0.4,4,1,5.1,3.3,5.1h3.5c0.4,0,0.5,0,0.5,0.5v1.8c0,0,0,0.5-0.7,0.5s-2.7,0-8.6,0s-8.5,0-9.1,0c-0.7,0-0.6,0-0.6-0.6
	V121c0,0,0-0.5,0.4-0.5h3.8c2.7,0,3.3-1.8,3.7-4.2c0.9-5.1,1.1-23.2,1.1-24.5s0-11.6,0-13.7s0-2.6-2.9-2.6H717c-0.4,0-0.5,0-0.5-0.5
	v-1.7c0,0,0-0.4,0.5-0.4s2.7,0,8.6,0c3.4,0,5.1,0,6,0s1.5,0,1.8,1.2L749.4,111.9z"/>
<path class="st0" d="M857.7,122.9c-4.2-1.5-7.4-5.1-8.4-9.5c-1.1-5.7-1.4-11.5-1.1-17.2V79.3c0-2.5-0.5-3.6-2.7-3.6h-3.3
	c-0.5,0-0.5,0-0.5-0.6v-1.6c0-0.4,0-0.6,0.7-0.6s4.1,0,9.7,0s8.9,0,9.7,0s0.6,0,0.6,0.4V75c0,0.4,0,0.5-0.6,0.5h-3.5
	c-1.7-0.1-3.3,1.1-3.4,2.9l0,0c0,0.6,0,5.6,0,9.2v4.7c0,3.7,0.3,12.7,0.4,15c-0.1,3.2,0.7,6.3,2.3,9c2.7,3.5,6.9,5.4,11.2,5.1
	c3.9,0.1,7.7-1.3,10.6-3.9c2.8-3.6,4.1-8,3.7-12.5V89.8c0.1-3.8,0-7.5-0.4-11.3c0-1.7-1.4-3.1-3.1-3.1c0,0,0,0-0.1,0h-3.1
	c-0.4,0-0.5,0-0.5-0.6v-1.4c0-0.4,0-0.5,0.5-0.5s4,0,8.7,0s7.2,0,7.8,0s0.7,0,0.7,0.5V75c0,0.5,0,0.7-0.4,0.7h-3
	c-2.7,0-2.9,2-3.1,2.9c-0.2,0.9,0,10.7,0,11.8c0,1,0,13.4-0.4,16.1c0.1,5.2-2.1,10.2-5.9,13.7c-3.7,3.1-8.5,4.6-13.3,4.2
	C864.2,124.5,860.8,124,857.7,122.9z"/>
<path class="st0" d="M960,120.7c-0.9-0.7-1.3-0.9-1.6-0.9c-0.4,0-0.7,0.5-1.1,1.2c-0.4,0.7-0.8,0.8-1.3,0.8s-0.8-0.4-0.7-1.1
	c0.3-1.7,1-10.8,1.2-12.8c0-0.4,0-0.4,0.5-0.4h1c0.3,0,0.5,0,0.5,0.6c-0.1,2.9,0.8,5.8,2.6,8.2c2.2,3.2,6,5.2,9.9,5.1
	c5,0.3,9.3-3.5,9.6-8.5c0-0.2,0-0.4,0-0.5c0-7.3-5.1-10.2-10.9-12c-3.8-1.2-7.3-3.1-10.2-5.7c-2.5-2.8-3.8-6.5-3.5-10.2
	c0.2-3.5,1.8-6.7,4.4-9c2.7-2.4,6.3-3.6,9.9-3.4c2.9,0,5.7,0.6,8.4,1.8c0.6,0.4,1,0.3,1.3,0l0.9-0.9c0.2-0.3,0.6-0.4,0.9-0.4
	c0.4,0,0.6,0.6,0.6,1.2c0,2.5,0.9,9.7,1,11.3c0,0.4,0,0.5-0.4,0.6h-0.9h-0.4c-0.8-3-2.5-5.7-4.7-7.9c-2-2.1-4.8-3.2-7.7-3.1
	c-4.4-0.3-8.3,3-8.6,7.4c0,0.3,0,0.6,0,0.9c-0.1,2.3,0.7,4.5,2.2,6.1c2.4,2,5.1,3.4,8.1,4.2c4.3,0.8,8.2,2.9,11.4,5.9
	c2.2,2.7,3.3,6.1,3.1,9.6c0.6,7.9-5.4,14.7-13.2,15.3c-0.4,0-0.8,0-1.2,0C967.1,124.3,963.2,123.1,960,120.7z"/>
</svg>
