<?xml version="1.0" encoding="UTF-8"?>
<svg width="715px" height="80px" viewBox="0 0 715 80" version="1.1" xmlns="http://www.w3.org/2000/svg" xmlns:xlink="http://www.w3.org/1999/xlink">
    <!-- Generator: Sketch 51.2 (57519) - http://www.bohemiancoding.com/sketch -->
    <title>Artboard 1</title>
    <desc>Created with Sketch.</desc>
    <defs>
        <polygon id="path-1" points="0.5625 0.9428 28.439 0.9428 28.439 43.8998 0.5625 43.8998"></polygon>
        <polygon id="path-3" points="0.0141 0.9422 31.0061 0.9422 31.0061 60 0.0141 60"></polygon>
    </defs>
    <g id="Artboard-1" stroke="none" stroke-width="1" fill="none" fill-rule="evenodd">
        <path d="M296,11.9986253 C294.903193,13.1239199 293.419159,14.6243126 292.193614,16 C289.742524,13.8750982 287.097821,12.061469 284,10.1879419 C285.35631,8.87509819 287.032945,7.12431265 287.935124,6 C290.25849,7.87549097 293.354283,10.3126473 296,11.9986253" id="Fill-1" fill="#000000"></path>
        <path d="M297,54.990991 C295.120771,57.2222222 293.046999,59.8328328 291.490651,62 C289.157148,60.025025 286.370389,57.985986 283.258712,56.0760761 L283.258712,55.8198198 C284.424955,55.5045045 285.656384,54.4884885 285.656384,52.3793794 L285.656384,27.2812813 C284.769225,26.6126126 284.035868,26.2622623 283,25.8788789 C284.619498,24.0960961 287.212732,20.7827828 288.50833,19 C290.908039,20.9109109 293.824154,22.9489489 296.741288,24.7957958 L296.741288,25.1151151 C294.795853,26.0710711 294.342597,26.8348348 294.342597,29.7017017 L294.342597,53.6546547 C295.379483,54.2922923 296.028301,54.6096096 297,54.990991" id="Fill-3" fill="#000000"></path>
        <path d="M282,55.4481997 C279.626489,58.2628251 278.43225,59.9899816 276.9836,62 C272.466047,60.4097766 270.062605,57.8120453 270.062605,51.9479092 L270.062605,31.3399735 C270.062605,28.0325887 268.031303,26.3154273 265.046206,25.6787383 C264.222111,26.5063341 263.078755,27.714744 262.38037,28.4134028 L262.38037,53.7290393 C263.078755,54.1108528 264.031552,54.6206039 264.983351,55.0014179 C263.522729,56.8475163 261.110307,59.7740871 259.650683,62 C257.173411,59.9010251 255.014404,58.2458334 251.522479,56.0848888 L251.522479,55.8290137 C253.300368,54.9374492 253.872046,54.0488831 253.872046,51.9479092 L253.872046,31.7847563 C253.872046,28.6682783 253.236516,27.0140861 250.125709,26.5063341 L250,26.2514586 C251.522479,24.4053602 253.617634,21.0979754 254.824843,19 C259.650683,20.0165036 262.38037,22.8171358 262.38037,27.2049929 C265.17391,24.1524837 267.777889,20.7171614 268.792542,19.0639688 C274.063353,20.1444411 278.633784,23.7696706 278.633784,29.3039678 L278.633784,51.6290649 C278.633784,53.8439832 279.441916,55.0853769 281.873293,55.1943237 L282,55.4481997 Z" id="Fill-5" fill="#000000"></path>
        <path d="M221,22.8204314 C220.545965,23.9696522 219.830732,25.6949889 219.311397,26.9726815 C218.272727,26.3965656 217.362616,26.2690974 215.869911,26.2690974 L214.051729,26.2690974 L214.051729,53.1608635 C216.195388,54.2468521 218.338027,55.078908 220.156209,55.523541 C217.882971,58.2053907 216.733088,59.7420344 214.441486,63 C211.519335,60.8902515 205.869911,57.4405818 202.94776,55.8427132 L202.94776,55.5887806 C203.855831,55.0126647 204.700643,54.1826162 205.350576,53.5462791 L205.350576,26.2690974 L201,26.2690974 L202.233548,22.8204314 L205.350576,22.8204314 L205.350576,19.4982299 C205.350576,17.6875798 205.155698,17.1987846 204.506785,16.432972 C206.454545,15.8578598 208.059484,13.8123472 210.02561,11.8973138 C211.975411,9.99833936 213.922151,8.06423592 216.324967,8 L216.584124,8.25594 C215.285277,9.40616446 214.051729,11.7688419 214.051729,14.9625716 L214.051729,22.8204314 L221,22.8204314 Z" id="Fill-7" fill="#000000"></path>
        <path d="M201,55.4481997 C198.62756,58.2628251 197.433359,59.9899816 195.983757,62 C191.464349,60.4097766 189.063975,57.8120453 189.063975,51.9479092 L189.063975,31.3399735 C189.063975,28.0325887 187.032736,26.3154273 184.047732,25.6787383 C183.349369,26.4413658 182.079345,27.714744 181.380982,28.4134028 L181.380982,53.7290393 C182.079345,54.1108528 183.032112,54.6206039 183.983882,55.0014179 C182.524302,56.8475163 180.110959,59.7740871 178.65138,62 C176.174186,59.9010251 174.016243,58.2458334 170.524427,56.0848888 L170.524427,55.8290137 C172.301263,54.9374492 172.872923,54.0488831 172.872923,51.9479092 L172.872923,31.7847563 C172.872923,28.6682783 172.301263,27.0140861 169.190553,26.5063341 L169,26.2514586 C170.459579,24.5962669 172.619517,21.0979754 173.82569,19 C178.65138,20.0165036 181.380982,22.8171358 181.380982,27.2049929 C184.175433,24.1524837 186.778332,20.7171614 187.793952,19.0639688 C193.063601,20.1444411 197.634887,23.7696706 197.634887,29.3039678 L197.634887,51.6290649 C197.634887,53.8439832 198.504848,55.0853769 200.937147,55.1943237 L201,55.4481997 Z" id="Fill-9" fill="#000000"></path>
        <path d="M110,55.4481997 C107.625565,58.2628251 106.431364,59.9899816 104.982759,62 C100.463352,60.4097766 98.0639751,57.8120453 98.0639751,51.9479092 L98.0639751,31.3399735 C98.0639751,28.0325887 96.0317381,26.4413658 93.0467342,25.8056763 C92.3493687,26.5063341 91.2060483,27.841682 90.3799844,28.6682783 L90.3799844,53.7290393 C91.0783476,54.1108528 92.0311146,54.6206039 92.9838815,55.0014179 C91.5233048,56.8475163 89.109961,59.7740871 87.6493843,62 C85.1731878,59.9010251 83.0152455,58.2458334 79.5234295,56.0848888 L79.5234295,55.8290137 C81.300265,54.9374492 81.8719252,54.0488831 81.8719252,51.9479092 L81.8719252,31.7847563 C81.8719252,28.6682783 81.2374123,27.0140861 78.126703,26.5063341 L78,26.2514586 C79.3967264,24.4053602 81.6185191,21.0979754 82.8246921,19 C87.6493843,20.0165036 90.3799844,22.8171358 90.3799844,27.2049929 C93.1744349,24.1524837 95.7773344,20.7171614 96.792954,19.0639688 C102.063601,20.1444411 106.634887,23.7696706 106.634887,29.3039678 L106.634887,51.6290649 C106.634887,53.8439832 107.378145,55.0853769 109.810444,55.1943237 L110,55.4481997 Z" id="Fill-11" fill="#000000"></path>
        <path d="M317.01261,56.1371371 L317.01261,32.3133133 C317.01261,26.8088088 312.013207,25.1791792 309.353887,24.6706707 L309.16493,24.7967968 L309.16493,49.0670671 C309.16493,53.1461461 311.633304,55.3113113 316.760005,56.3303303 L317.01261,56.1371371 Z M326,54.1001001 C320.049845,55.5675676 317.139908,56.7137137 312.265813,62 C304.74632,60.1141141 301,56.3303303 301,49.8328328 L301,26.962963 C308.786021,25.0520521 312.455764,22.6296296 315.937545,19 C321.3805,20.5285285 326,23.5235235 326,31.2312312 L326,54.1001001 Z" id="Fill-13" fill="#000000"></path>
        <path d="M237.392513,56.1371371 L237.392513,32.3133133 C237.392513,26.8088088 232.392116,25.1791792 229.732795,24.6706707 L229.543838,24.7967968 L229.543838,49.0670671 C229.543838,53.1461461 232.011218,55.3113113 237.138913,56.3303303 L237.392513,56.1371371 Z M246,54.1001001 C240.049845,55.5675676 237.138913,56.7137137 232.264818,62 C224.744331,60.1141141 221,56.3303303 221,49.8328328 L221,26.962963 C228.784032,25.0520521 232.45477,22.6296296 235.935556,19 C241.379505,20.5285285 246,23.5235235 246,31.2312312 L246,54.1001001 Z" id="Fill-15" fill="#000000"></path>
        <path d="M148.474156,37.8415778 L141.625517,15.3914734 L134.905383,37.8415778 L148.474156,37.8415778 Z M168,55.1418697 C166.541613,56.8608057 164.51342,59.8479568 162.484231,63.1569087 C158.363093,63.1569087 155.633599,60.2057354 154.432223,56.4150816 L150.121814,42.8045059 L133.447993,42.8045059 L130.911755,51.5171132 C133.891286,51.9608386 135.539941,52.6624043 137.061086,53.9336175 L138.519472,51.5810736 L139.533569,52.2176796 C138.202692,54.3773429 134.905383,60.1677589 133.447993,62.775145 C130.911755,60.8033655 127.234907,59.5941139 124.444647,59.5941139 C119.563435,59.5941139 116.20536,62.075578 116.20536,64.9378064 C116.20536,66.3999015 115,66.4638619 115,64.4281219 C115,57.558374 119.754699,51.3911912 129.136587,51.3911912 L136.68055,25.5681745 C135.666454,24.4238827 134.424235,23.5324345 132.496654,23.5324345 C129.70739,23.5324345 128.375517,24.6767262 127.551688,25.6311355 C127.076517,26.1837934 126.342343,26.2677415 126.537591,24.6777256 C126.91713,21.5616543 129.326855,17.5541348 133.955041,17.5541348 C136.300015,17.5541348 137.441621,17.9998589 138.708744,19.0172292 L140.737933,12.4023235 C139.763683,9.20830048 138.645985,7.05963041 135.159405,7.05963041 C132.4329,7.05963041 130.637809,8.44177492 129.389614,9.98481985 C128.736129,10.7953182 127.661266,10.7943188 128.629539,8.7765677 C130.661717,4.54518673 133.955041,0 139.976863,0 C144.922825,0 148.261973,2.50345048 150.249323,8.90348914 L163.055033,50.1819396 C164.370968,54.4273119 166.034565,54.6981443 167.809732,54.8240664 L168,55.1418697 Z" id="Fill-17" fill="#000000"></path>
        <path d="M65.792091,52.8248248 L65.792091,36.2632633 C60.303657,39.7667668 57.4620122,41.2852853 57.4620122,46.5185185 C57.4620122,51.997998 60.6263867,53.8458458 63.2102537,54.990991 C63.2102537,54.990991 65.1446019,53.3613614 65.792091,52.8248248 Z M78,55.4384384 C76.384322,57.2842843 74.2530884,59.8328328 72.832266,62 C69.9896063,61.1721722 66.5684689,58.9419419 65.9219948,54.4184184 C62.8854943,56.8408408 59.0746457,60.4074074 57.5249344,62 C52.552056,59.7067067 49,55.6296296 49,50.9159159 C49,45.0530531 52.391706,41.8298298 58.0425197,38.8118118 L65.792091,34.6716717 L65.792091,33.015015 C65.792091,29.1291291 63.2102537,26.8988989 57.3310936,26.0710711 C57.3310936,26.0710711 55.7823972,27.6636637 54.295608,29.4464464 L53.2624672,28.5545546 C55.5875416,26.0710711 58.9457568,22.0570571 61.1419423,19 C70.0545582,20.1461461 74.5108661,24.3503504 74.5108661,31.2942943 L74.5108661,50.6606607 C74.5108661,53.6546547 74.8985477,54.990991 77.8690814,55.1841842 L78,55.4384384 Z" id="Fill-19" fill="#000000"></path>
        <path d="M35.3349637,12.7877896 C33.2468615,9.43858749 28.829991,3.61127624 21.5441021,3.61127624 C16.52307,3.61127624 13.4103897,5.71491558 13.4103897,9.79303219 C13.4103897,13.0421087 16.5570229,14.9004402 23.4524537,18.1415066 L29.5519891,21.0081032 C31.1797302,18.5950757 33.2418684,15.6503811 35.3349637,12.7877896 M49,38.8494879 C49,44.7288645 44.4772764,49.5559208 39.4023192,54.7163954 C36.6641192,57.5018902 33.7811201,60.3815031 31.3315195,63.5745092 C26.1836635,60.5797519 23.9128149,59.8127896 15.9518627,59.8127896 C7.98991196,59.8127896 1.52588245,63.2541072 1.52588245,67.0148256 C1.52588245,68.2894248 0,68.6088255 0,66.2488646 C0,56.946193 7.94397571,50.5111192 19.8274843,50.5111192 C27.6456346,50.5111192 32.857402,52.7399156 36.2257276,56.055075 C38.9379636,53.3346618 42.4530855,49.3006004 42.4530855,42.9296071 C42.4530855,38.6462329 39.3394065,36.6196903 32.6027554,33.3706139 L25.8671028,30.1205361 L24.7856037,31.9678539 L33.237874,35.9818901 C38.3098353,38.3909126 40.1662591,40.4424866 40.1662591,44.1381233 C40.1662591,47.7076018 38.7512228,50.2417813 37.3691408,51.8497988 C37.0326078,52.2402887 36.4544102,52.1401631 36.6691123,51.4663177 C37.3052295,49.4918404 36.5772397,47.0037187 32.4120201,45.0953243 L20.4636015,39.6144477 L18.875805,42.4189664 C17.9361091,44.0760454 16.3952474,46.5151056 13.9825956,47.8988417 C12.4167686,48.7959673 10.697155,49.1714384 9.08738893,49.1714384 C5.02103204,49.1714384 2.54247167,47.0688003 2.54247167,44.5226057 C2.54247167,42.800445 3.43123828,41.5899262 4.76638542,41.5899262 C6.48200457,41.5899262 7.37176979,42.9296071 7.37176979,44.7769248 C7.37176979,46.8385114 9.26713948,48.4074799 11.375214,47.8347613 C13.7269504,47.1979624 15.7551357,45.6510215 17.2870099,42.9906837 C18.0020176,41.7501272 18.7060406,40.4695205 19.4470123,39.1688887 L12.9660064,36.17313 C8.81077281,34.2537218 6.54591587,31.3320562 6.54591587,27.6354182 C6.54591587,25.0241419 7.37576425,22.7332677 8.32544632,21.5187439 C8.68594603,21.0571648 8.96156354,21.0081032 9.08738893,21.3895818 C10.0720225,24.3543015 13.036908,26.3828466 17.5406579,28.5275375 L23.8319271,31.5222949 L24.9134263,29.6749771 L18.7479824,26.7432989 C10.6532159,22.8944699 9.72350615,18.6451385 9.72350615,15.4010683 C9.72350615,4.18099104 18.8118937,1 27.2012513,1 C33.9928263,1 38.9539415,3.63330388 41.499409,5.3965161 L42.8984674,3.42103756 L44.1687047,4.18499606 C42.4331132,6.34770951 36.6551317,13.4065659 31.2046955,21.5187439 L36.0979049,23.8126219 C43.2859297,27.1808479 49,30.4389356 49,38.8494879" id="Fill-21" fill="#000000"></path>
        <g id="Group-25" transform="translate(687.000000, 19.000000)">
            <mask id="mask-2" fill="white">
                <use xlink:href="#path-1"></use>
            </mask>
            <g id="Clip-24"></g>
            <path d="M28.4395,36.0068 C22.9005,37.0908 18.8825,39.2048 14.6915,43.8998 C13.6735,43.0078 10.8105,41.9898 8.5825,41.9898 C5.2095,41.9898 2.0915,42.8798 0.8805,43.8998 L0.5625,43.5178 C1.7735,38.3628 5.5235,34.6088 11.2555,34.6088 C14.2465,34.6088 17.5545,35.3088 19.8475,37.4098 L19.8475,31.4888 C19.8475,29.1998 18.4535,27.8178 15.5825,26.6528 L9.4705,24.1708 C5.5645,22.5828 4.5095,20.8618 4.5095,16.7888 L4.5095,8.8968 C10.2365,7.7518 15.1365,4.8878 17.9375,0.9428 C19.5295,2.9778 21.3745,4.2518 23.2835,4.2518 C25.6695,4.2518 27.1015,3.7418 27.6095,3.3598 L27.8655,3.7418 C27.6095,5.9698 25.3185,10.7418 19.9105,10.7418 C17.2385,10.7418 14.5015,9.4068 13.1645,7.1148 L13.1645,13.4158 C13.1645,15.7068 14.1645,16.8068 16.3475,17.6798 L23.3455,20.4788 C27.0195,21.9478 28.4395,23.5328 28.4395,27.6068 L28.4395,36.0068 Z" id="Fill-23" fill="#000000" mask="url(#mask-2)"></path>
        </g>
        <path d="M689,25.0419088 C687.40408,25.6146158 686.703358,26.7590303 686.703358,29.685533 L686.703358,49.4034447 C686.703358,50.8636976 686.832676,52.9666217 687.596552,53.6022965 L687.596552,53.8571661 C681.407348,54.746711 677.005535,57.3543768 672.923508,61.9350332 C667.882123,61.1724234 664.881753,59.1994328 663.161527,55.5113198 C660.163162,57.9270838 658.250463,59.5172702 656.079129,62 C649.254364,60.4707824 645.807898,55.9560922 645.807898,50.4848915 L645.807898,29.1767933 C645.807898,27.218795 644.59592,25.9954209 643.06516,25.6146158 L643,25.3597462 C644.213982,24.0244294 646.637937,20.7800893 647.593284,19 C651.485846,20.7171215 654.421056,23.04593 654.421056,28.4771512 L654.421056,48.7667705 C654.421056,53.427386 657.485584,55.3833852 660.927038,55.9560922 C661.375139,55.6382548 662.013708,55.1295151 662.714429,54.5558087 C662.332491,53.5373297 661.94955,51.6832783 661.94955,50.3569569 L661.94955,27.2687695 C661.310981,26.8229975 660.101009,26.1233555 659.333123,25.8055181 C660.672413,24.3412673 662.969054,21.4797313 664.75444,19 C667.051082,20.804077 670.242923,23.26082 672.858348,24.7870392 L672.858348,25.0419088 C671.329592,25.6785831 670.624861,26.5041607 670.624861,29.4306634 L670.624861,48.7667705 C670.624861,53.3484264 673.05082,55.5732881 677.833569,56.2739296 L678.0902,56.1459951 L678.0902,27.2048022 C677.516791,26.8229975 676.239654,26.1233555 675.536928,25.8684859 C677.134853,23.9614616 679.811428,20.3992841 680.96025,19 C682.810796,20.5252197 686.703358,23.3887546 689,24.7870392 L689,25.0419088 Z" id="Fill-26" fill="#000000"></path>
        <path d="M569,32 L566.361597,39.2437515 L558.144688,39.2437515 C556.084052,39.2437515 554.754005,39.3704529 553,40 L555.635445,32.8819599 L563.791225,32.8819599 C565.325364,32.8819599 567.430367,32.8186093 569,32" id="Fill-28" fill="#000000"></path>
        <path d="M550,54.0990991 C544.562753,55.1841842 540.619103,57.3003003 536.501643,62 C535.500019,61.1071071 533.314122,60.0880881 531.127243,60.0880881 C527.813045,60.0880881 525.502436,60.978979 524.313253,62 L524,61.6176176 C525.189183,56.4574575 528.116478,52.8188188 533.751105,52.6996997 C536.685274,52.6366366 539.313064,53.4004004 541.560826,55.5035035 L541.560826,49.5765766 C541.560826,47.2852853 540.193904,45.9019019 537.376591,44.7357357 L531.376667,42.2512513 C528.022208,40.8628629 526.49915,39.5115115 526.49915,34.8618619 L526.49915,26.961962 C532.126903,25.8158158 536.938626,22.9489489 539.6872,19 C541.250519,21.037037 543.126109,22.3123123 544.999736,22.3123123 C547.343732,22.3123123 548.749934,21.8018018 549.2478,21.4194194 L549.625864,21.9299299 C549.311629,23.967968 547.000038,28.8088088 541.685538,28.8088088 C539.06364,28.8088088 536.311138,27.4724725 535.000189,25.1781782 L535.000189,31.4854855 C535.000189,33.7787788 535.991011,34.7987988 538.123881,35.6896897 L544.999736,38.5555556 C548.591834,40.0540541 550,41.6126126 550,45.6906907 L550,54.0990991 Z" id="Fill-30" fill="#000000"></path>
        <path d="M524,54.0990991 C518.661293,55.1181181 514.299885,57.4134134 510.212001,62 C509.199763,61.1071071 506.72008,60.0880881 504.621733,60.0880881 C501.129811,60.0880881 498.523348,60.978979 497.318446,62 L497,61.6176176 C498.206899,56.4574575 501.827596,52.6996997 507.544645,52.6996997 C511.420897,52.6996997 513.454357,53.7167167 515.420934,55.5035035 L515.420934,49.5765766 C515.420934,47.2852853 513.4873,45.990991 510.656228,44.7357357 L505.067956,42.2512513 C500.72851,40.3223223 500.11358,38.6876877 500.11358,34.8618619 L500.11358,26.961962 C505.386401,25.9429429 510.212001,23.3953954 513.514253,19 C515.105483,21.037037 517.010167,22.3123123 518.918845,22.3123123 C521.301697,22.3123123 522.729212,21.8018018 523.235331,21.4194194 L523.617666,21.9299299 C523.302215,23.967968 520.950309,28.8088088 515.54971,28.8088088 C512.882353,28.8088088 510.087219,27.4724725 508.75354,25.1781782 L508.75354,31.4854855 C508.75354,33.7787788 509.749806,34.8798799 511.927016,35.7537538 L518.918845,38.5555556 C522.584464,40.026026 524,41.6126126 524,45.6906907 L524,54.0990991 Z" id="Fill-32" fill="#000000"></path>
        <path d="M473,24.5249501 C471.6118,26.1766467 469.527516,29.9241517 468.456619,33.3532934 L468.206743,33.3532934 C467.836886,29.7964072 465.427367,26.3043912 461.956867,25.6686627 L459.369856,28.3992016 L459.369856,52.0908184 C460.127417,52.4700599 462.525037,53.5499002 465.237977,54.5668663 C463.027764,57.1706587 461.828954,59.0129741 459.683193,62 C455.960833,59.3932136 452.426872,57.0449102 448.515121,54.8832335 L448.515121,54.6317365 C449.777392,54.250499 450.850273,53.2984032 450.850273,50.6297405 L450.850273,31.1307385 C450.850273,28.3972056 449.651463,26.8752495 447.127913,26.49501 L447,26.240519 C448.830441,23.762475 450.726326,20.7784431 451.797224,19 C456.149232,19.8882236 459.116014,22.1756487 459.306396,27.1926148 C461.641547,24.4620758 463.407536,22.1107784 465.679227,19.0638723 C468.519088,19.4441118 472.053049,21.8582834 473,24.5249501" id="Fill-34" fill="#000000"></path>
        <path d="M413,20.0804472 C412.427053,24.4052345 410.204141,27.4596718 406.139614,27.6495746 L402.263741,37.5085305 L402.455388,37.953303 L404.74418,37.953303 C407.080884,37.953303 409.753969,37.7524057 411.095502,37.5085305 L409.952603,41.3255776 L403.914705,41.3255776 L408.490292,52.0111106 C409.469492,54.3009391 410.332904,55.0635489 412.811347,55.0015806 L412.936117,55.2554507 C411.347039,57.2904096 409.759957,59.5172702 408.23576,61.9350332 C405.313134,61.9350332 403.012364,61.030496 400.930193,56.4638325 L394.959172,43.3605365 L391.085295,53.4103947 C393.052677,53.4593696 394.388222,53.9831017 395.912419,55.0015806 L393.052677,61.9350332 C391.909779,61.0434894 390.512348,60.4068151 388.291432,60.4068151 C385.556461,60.4068151 383.396432,61.0434894 382.380301,62 L382,61.7441309 C382.507068,57.3543768 385.429694,54.0460695 389.685868,53.4103947 L394.259458,41.7073823 L394.071803,41.3255776 L389.9404,41.3255776 C388.467109,41.3255776 386.211257,41.4685045 384.858744,41.7713495 L386.065525,37.953303 L392.672377,37.953303 L388.479087,29.0498582 C387.221399,26.3742271 386.00264,25.6146158 384.411566,25.8684859 L384.286795,25.6785831 C385.556461,24.0873971 388.033905,20.7800893 389.050037,19 C391.909779,19 394.302379,20.2933383 396.229835,24.4052345 L401.503139,35.664474 L404.677303,27.5856074 C403.153106,27.5856074 401.885436,26.8869648 400.86631,26.1233555 L403.726052,19.3808052 C405.006697,20.5392125 406.915188,20.9080238 408.170879,20.9080238 C410.459671,20.9080238 412.046753,20.3982846 412.746466,19.8895449 L413,20.0804472 Z" id="Fill-36" fill="#000000"></path>
        <path d="M362.839948,3.01302611 C361.079259,6.85329196 357.416316,11.0702346 352.142112,11.0702346 C349.250885,11.0702346 344.018953,8.34162465 341.944662,8.34162465 C338.96889,8.34162465 337.626008,9.37774104 337.626008,11.3938296 C337.626008,12.1461623 336,12.6892302 336,9.90039285 C336,4.75451828 340.421877,1 345.51028,1 C349.457331,1 354.720721,3.92358357 357.397638,3.92358357 C359.463081,3.92358357 360.956374,3.30599695 362.402479,2.23517322 C363.031648,1.76764485 363.139786,2.36175296 362.839948,3.01302611" id="Fill-38" fill="#000000"></path>
        <path d="M387,2.26637246 C384.209469,5.68547861 382.430593,8.02821791 379.700921,11.8263405 C377.221668,9.9272792 375.064668,8.78724555 371.890028,8.78724555 C365.731305,8.78724555 363.192191,12.0163461 363.192191,19.3609084 L363.192191,30.2499209 C365.984717,25.7554427 368.780237,23.2853698 374.176727,23.2853698 C376.714843,23.2853698 379.12725,24.2990646 380.271598,25.1217591 L382.175185,22.4000033 L383.317537,23.159031 C380.398304,27.2098312 378.556573,29.8699097 376.652986,32.9080098 C374.620697,31.5162934 371.954877,30.6926041 368.780237,30.6926041 C366.428688,30.6926041 364.778513,31.4526266 363.192191,32.4036494 L363.192191,50.5725626 C364.396399,50.5088958 365.606594,50.4462238 366.808807,50.4462238 C373.31273,50.4462238 378.112603,52.3452851 381.664369,54.6253524 L383.636797,52.0269511 L384.906852,52.9123175 C382.874564,55.2570464 380.208743,58.8651634 377.221668,63.48797 C373.5412,61.2705747 369.793887,59.0561638 361.985987,59.0561638 C351.12716,59.0561638 344.650175,63.1706308 344.650175,66.9697481 C344.650175,68.4241366 343,68.5514702 343,65.9560533 C343,59.0133877 348.333636,52.3452851 361.348465,50.6979066 L361.348465,17.2081747 C361.348465,5.43280099 368.207564,1 376.397578,1 C380.142896,1 382.430593,2.39271126 384.080767,3.53274491 L385.66709,1.44367802 L387,2.26637246 Z" id="Fill-40" fill="#000000"></path>
        <path d="M359.635651,11.8037683 C358.33645,13.0166058 357.755067,14.3626452 357.755067,16.3947239 L357.755067,37.7460728 C357.755067,43.9915351 355.561902,47.2985454 352.311863,49.2815498 L346.675205,52.7227635 C345.730331,53.3076497 344.513603,52.9370882 345.766986,51.8935071 C346.901241,50.9550854 348.22997,49.6030369 348.22997,46.923978 L348.22997,33.985375 L346.86866,33.985375 C344.841458,33.985375 343.190984,35.2683188 342.785747,38.0645553 C342.683929,38.7766341 342.133092,38.8857995 341.61891,38.1276509 C340.584437,36.6003369 340,34.4961489 340,32.3929624 C340,28.3768778 342.850911,26.0183043 348.22997,26.0183043 L348.22997,23.5966353 C348.22997,18.2425235 351.077826,15.1678651 353.738337,13.8458622 C353.738337,13.8458622 357.682776,11.8558472 359.116377,11.1678048 C359.983869,10.7511735 360.317833,11.1658017 359.635651,11.8037683" id="Fill-42" fill="#000000"></path>
        <path d="M634.255852,37.0910911 C632.896194,34.5435435 629.267047,28.9379379 627.002646,25.4344344 L626.808264,25.5615616 L626.808264,41.041041 C629.075717,39.8308308 631.926318,38.3023023 634.255852,37.0910911 M643,33.8428428 C639.827804,35.6906907 629.075717,41.5505506 626.808264,42.8908909 L626.808264,48.2372372 C626.808264,53.0830831 629.787095,55.4394394 634.518421,55.4394394 C635.595156,55.4394394 637.290657,54.6526527 638.401995,53.1461461 C639.022797,52.3053053 639.135762,51.1821822 639.373906,49.8968969 C639.620191,48.5575576 640.435376,48.1121121 640.926929,48.1121121 C641.446977,48.1121121 641.89884,48.4944945 641.89884,49.5125125 C641.89884,50.1031031 641.669855,50.8408408 641.186444,51.6796797 C639.503155,54.6106106 637.561368,56.3303303 635.746794,57.6676677 C634.086912,58.8918919 632.445349,60.8528529 631.730918,62 C622.468756,60.5985986 618,56.7137137 618,49.2582583 L618,26.962963 C623.699165,25.7517518 628.179117,23.7767768 633.415225,19 C636.328923,23.7777778 640.280684,29.7657658 643,33.8428428" id="Fill-44" fill="#000000"></path>
        <path d="M595.296506,36.8040002 L586.233621,16.6419575 C584.86453,13.5885349 583.827008,11.456369 582.939837,10.1760637 L582.939837,37.1238251 C585.020855,36.335326 587.350799,35.9078871 589.658838,35.9078871 C591.617385,35.9078871 593.548052,36.2156431 595.296506,36.8040002 M611.076401,44.93238 L611.076401,24.771343 C609.279158,25.1193286 607.721879,25.3466255 606.132738,25.3466255 C604.736763,25.3466255 603.321869,25.2681779 601.698874,24.9624333 C604.333503,30.9878136 606.70228,36.4198081 606.70228,36.4198081 C608.565239,40.680117 609.432496,42.6584049 611.076401,44.93238 M621.913629,2.11205117 C621.139968,5.94089822 618.821972,11.2361122 612.976202,11.9049284 L612.976202,57.2215006 C612.976202,58.801516 613.374483,61.5622686 614.053552,62.5981794 C614.3204,63.0044978 614.284555,63.3394088 613.545744,63.1754734 C609.803893,62.3427218 605.232623,58.7974931 602.266424,52.2280082 L596.375848,39.171509 C594.21119,38.4252509 592.050516,37.8912037 589.592126,37.8912037 C587.604703,37.8912037 585.435067,38.1677818 582.939837,39.0437802 L582.939837,51.0130759 C587.375692,51.0130759 590.499211,52.2451057 592.762443,53.8291441 L594.157422,51.5903699 L595.106327,52.2280082 C593.458439,54.7886188 590.989097,59.1434671 589.024575,62.9180043 C586.996329,61.2555183 583.00157,59.5256478 578.947069,59.5256478 C573.562309,59.5256478 570.203804,62.0862584 570.203804,64.7756036 C570.203804,66.5024569 569,66.5024569 569,64.1339423 C569,58.116608 573.054501,51.1418104 581.038045,51.0130759 L581.038045,33.9235647 L579.645057,33.9235647 C577.661617,33.9235647 575.973901,35.2008528 575.652289,38.0189325 C575.592547,38.532865 575.092704,39.1453598 574.511214,38.0189325 C573.554344,36.1663619 572.799601,34.4354857 572.799601,32.3234345 C572.799601,28.5056506 575.652289,25.9229137 581.038045,25.9229137 L581.038045,8.70466803 C580.469498,8.3214816 579.637091,8.12837978 578.75689,8.12837978 C575.398385,8.12837978 572.903154,10.2484769 573.688764,15.4903867 C573.766428,16.0143766 573.397023,16.7898011 572.737868,15.8092059 C571.660517,14.2110871 571.08998,12.033663 571.08998,9.98497333 C571.08998,2.40673259 577.490356,0 581.481132,0 C588.744783,0 592.756469,5.56676344 594.474056,9.28095628 L600.745987,22.8503822 C602.468552,23.2999473 604.359391,23.555405 606.132738,23.555405 C607.958856,23.555405 609.691379,23.3351482 611.076401,22.8503822 L611.076401,11.9692957 C606.56786,11.8707333 604.988675,10.7030707 603.533954,9.60078117 C603.533954,9.60078117 602.837958,10.6246231 602.077241,11.6474593 L600.936166,10.8810865 C602.077241,9.5364139 608.03453,0.383186426 608.03453,0.383186426 C610.123514,1.91995509 612.239382,2.81606822 614.685823,2.81606822 C618.234507,2.81606822 619.976987,2.18949304 621.21365,1.15257649 C621.76029,0.69395967 622.190434,0.723126091 621.913629,2.11205117" id="Fill-46" fill="#000000"></path>
        <path d="M489.935824,37.0910911 C488.603101,34.6076076 485.174529,29.1291291 482.824307,25.4344344 L482.63577,25.5615616 L482.63577,41.1041041 C484.856312,39.8948949 487.713288,38.3643644 489.935824,37.0910911 M498,34.2252252 C494.888649,36.0730731 484.856312,41.5505506 482.63577,42.8908909 L482.63577,48.2372372 C482.63577,53.0830831 485.555593,55.4394394 490.189202,55.4394394 C491.250592,55.4394394 492.908517,54.6526527 493.999834,53.1461461 C494.606343,52.3053053 494.719066,51.1821822 494.952492,49.8968969 C495.192901,48.5575576 495.990939,48.1121121 496.47874,48.1121121 C496.984496,48.1121121 497.427408,48.4944945 497.427408,49.5125125 C497.427408,50.1031031 497.202959,50.8408408 496.730122,51.6796797 C495.077185,54.6106106 493.173864,56.3303303 491.397232,57.6676677 C489.770232,58.8918919 488.159192,60.8528529 487.459911,62 C478.380232,60.5985986 474,56.7137137 474,49.2582583 L474,26.962963 C479.586267,25.7517518 483.977472,23.7767768 489.109855,19 C491.903986,23.8418418 495.461241,30.1481481 498,34.2252252" id="Fill-48" fill="#000000"></path>
        <g id="Group-52" transform="translate(413.000000, 19.000000)">
            <mask id="mask-4" fill="white">
                <use xlink:href="#path-3"></use>
            </mask>
            <g id="Clip-51"></g>
            <path d="M22.4141,37.4102 L22.4141,12.7162 C22.4141,9.5972 20.5701,8.1332 17.4511,7.5602 C16.6251,8.3882 15.6071,9.4702 14.7791,10.3612 L14.7791,34.4802 C17.0701,34.8002 20.0591,35.7532 22.2891,37.5352 L22.4141,37.4102 Z M31.0061,37.0242 C26.3631,38.4892 22.9261,40.0162 18.7891,43.8992 C17.8961,43.3892 15.8611,42.6902 14.7151,42.3712 L14.7151,48.5452 C14.7151,50.3482 14.9691,50.9012 15.6071,51.6652 C13.9121,52.2062 12.2501,54.2102 10.3241,56.1202 C8.4121,58.0122 6.3071,59.8112 4.0861,60.0002 L3.8321,59.6822 C5.1051,58.5372 6.3161,56.2472 6.3161,53.0632 L6.3161,41.6082 C3.6411,42.0532 1.7541,43.5012 1.5391,46.2542 L1.1601,46.1912 C0.7751,45.6172 0.0141,44.4082 0.0141,42.6262 C0.0141,39.6352 1.4771,35.7532 6.2501,34.6712 L6.2501,13.6692 C6.2501,10.1692 5.4241,8.9602 2.4961,8.3882 L2.3671,8.1332 C3.9591,6.2232 5.9321,3.1692 7.2051,0.9422 C11.8501,1.7052 14.6521,4.5062 14.7791,9.0872 C17.7071,5.8422 19.1031,3.9962 21.2051,0.9422 C27.2541,2.3422 31.0061,5.4602 31.0061,11.3782 L31.0061,37.0242 Z" id="Fill-50" fill="#000000" mask="url(#mask-4)"></path>
        </g>
    </g>
</svg>