<?xml version="1.0" encoding="UTF-8"?> <svg xmlns="http://www.w3.org/2000/svg" viewBox="0 0 432 122.12"> <defs> <style> .cls-1 { fill: #010101; } </style> </defs> <title>Asset 1</title> <g id="Layer_2" data-name="Layer 2"> <g id="Layer_1-2" data-name="Layer 1"> <g> <path d="M372.12,114.8c0-2.82-1.22-4.79-5.28-6.52-2.72-1.17-3.82-1.65-3.82-3.09,0-.9.74-1.76,2.58-1.76a9.74,9.74,0,0,1,4.8,1.79l1.28-4.55a11.85,11.85,0,0,0-6.08-1.7c-5.08,0-7.65,3.11-7.65,6.32,0,2.63,1.34,4.88,5.16,6.43,3.32,1.35,3.88,2.13,3.88,3.26s-.68,1.92-2.46,1.92a10.76,10.76,0,0,1-6.08-2.12l-1.4,4.61a14.57,14.57,0,0,0,7.33,2.24c5.23,0,7.74-3.32,7.74-6.82M333.81,99.46H327.9l-4.43,7.88L319,99.46h-5.91L321,112.21v8.92h4.92v-8.92Zm-49.75,13.79h-4.93l2.46-4.92Zm8.37,7.88L282.09,99.46h-1l-10.34,21.67h5.42l2-3.94H285l1.92,3.94ZM249.58,99.46h-5.91l-3.45,11.33L234.8,99h-1l-5.42,11.82L225,99.46H219l7.88,22.66h1l6.4-13.79,6.41,13.79h1Zm-111.82,8.87v4.92h4.8v3.25a6.25,6.25,0,0,1-3.2.6c-3.56,0-6.35-2.6-6.35-6.79,0-3.86,2.31-6.58,6.64-6.58a10.47,10.47,0,0,1,4.86,1.23l2.11-4.1a15.09,15.09,0,0,0-7.3-1.88c-6.58,0-11.69,4.59-11.69,11.33a11.06,11.06,0,0,0,11.42,11.33,16.81,16.81,0,0,0,8.56-2.46V108.33Zm-37.43-8.87H95.4v21.67h4.93Zm-33.5,21.67V99.46H61.91v7.88H53V99.46H48.12v21.67H53v-8.87h8.87v8.87Zm126.1,0V99.46H188v7.88h-8.87V99.46h-4.93v21.67h4.93v-8.87H188v8.87Z"></path> <path d="M417.23,60.27c0-10.71-4.71-18.23-20.43-24.83C386.25,31,382,29.17,382,23.7c0-3.42,2.87-6.72,10-6.72,6,0,13.77,3.53,18.59,6.84l4.93-17.32C410.58,3.19,401.17,0,392,0c-19.62,0-29.6,11.85-29.6,24,0,10,5.16,18.57,20,24.5,12.85,5.13,15,8.09,15,12.42,0,4.1-2.64,7.29-9.53,7.29-7.92,0-16.75-3.19-23.52-8.09L358.95,77.7c7.34,4.79,18.82,8.55,28.34,8.55,20.2,0,29.95-12.65,29.95-26M310.49,55.38H294.14l8.17-20Zm32.68,30L304.13.91h-2.72L261.64,85.34h19.85L287.8,69.9h29l6.31,15.43Zm-94,0-27.65-43.2L249.14.91H226.3l-17.1,27.87L192.23.91H168.93L196.59,44.1,168.93,85.34h22.95L209,57.58l16.87,27.76ZM148,85.34V67.18H114.31V50.84h30.95V33.59H114.31V19.06H148V.91H94.42V85.34ZM69.9,19.06V.91H0V19.06H25.42V85.34H44.48V19.06Z"></path> </g> <path class="cls-1" d="M423.15,3.14V1.65h-5.83V3.14h2.11V8.66H421V3.14ZM432,8.66l-.33-7.06-.22,0-3.09,4-3.18-4-.22,0-.33,7.06h1.57l.07-3.44,2,2.46h.17l1.94-2.46.09,3.44Z"></path> </g> </g> </svg> 